# xmcd
#
# Track frame offsets:
#	150
#	16972
#	34477
#	49200
#	64232
#	80602
#	96047
#	112582
#	128010
#	144522
#	160650
#	177832
#	195850
#	216640
#	234355
#	251327
#	270050
#	288485
#	305877
#
# Disc length: 4289 seconds
#
# Revision: 0
# Processed by: cddbd v1.5.2PL0 Copyright (c) Steve Scherf et al.
# Submitted via: EasyCDDAExtractor 2010.6.0.0
#
DISCID=0210bf13
DTITLE=Various Artist - Tanecni liga 17
DYEAR=1900
DGENRE=
TTITLE0=DJ Disco present Dirty Disco Dubs  - Stamp your feet (radio edit)
TTITLE1=DJ Bobo - Where is your love (radio version)
TTITLE2=2 UNLIMITED - Wanna wake up (origonal edit)
TTITLE3=Triple S - Wwhoomp! (There it is) (radio edit)
TTITLE4=SM-TRAX - Show me something special (radio edit)
TTITLE5=PAT JAM - The Squeeler (radio version)
TTITLE6=Freebass - Pure plasure (radio edit)
TTITLE7=Rob N' Hood  - Vicious Games (Pizz mix)
TTITLE8=Boys on 33 - Slam The Jam (radio version)
TTITLE9=Party Animal - Whatever!
TTITLE10=Mousse T vs. Hot'n'Juicy - Horny'98
TTITLE11=DJ Priest  - I Pray (radio version)
TTITLE12=Morhotronic - So Romantic
TTITLE13=Marcus - Wake Up (radio edit)
TTITLE14=Rappers Againts Racism feat. Down Low and La Mazz and Scream Factory 
TTITLE14=/ I Wnat to know what love is (vocal mix)
TTITLE15=Paradiso - Dime Como
TTITLE16=Pappa Bear feat. Van Der Toorn  - When The rain begins to fall (origi
TTITLE16=nal radio edit)
TTITLE17=EX-IT - Show me the way
TTITLE18=DJ Thoka - Party People (radio edit)
EXTD=
EXTT0=
EXTT1=
EXTT2=
EXTT3=
EXTT4=
EXTT5=
EXTT6=
EXTT7=
EXTT8=
EXTT9=
EXTT10=
EXTT11=
EXTT12=
EXTT13=
EXTT14=
EXTT15=
EXTT16=
EXTT17=
EXTT18=
PLAYORDER=
